<svg height="314.419013" viewBox="0 0 526 520" width="318.046924" xmlns="http://www.w3.org/2000/svg"><circle cx="260" cy="260" fill="#255aa8" r="247.06689" stroke="#fff" stroke-linecap="square" stroke-width="5.86622"/><g clip-rule="evenodd" fill-rule="evenodd"><path d="m255.10839 222.55523c48.22902.0559 78.79273 51.28009 78.79273 113.61672 0 62.33794-33.8729 110.76637-78.79273 110.76637-44.91982 0-74.67545-48.09668-74.67545-110.43396 0-62.33729 26.44644-114.00499 74.67545-113.94913zm4.39967-175.986734c-104.16385 0-190.128234 100.108334-195.051961 212.650634-5.774565 131.99006 82.127141 217.24507 197.985071 217.05031 115.85794-.19476 171.58707-90.92648 171.58707-153.98839 0-63.06192-65.99502-133.45661-148.12217-133.45661-82.12714 0-114.39138 52.79602-114.39138 52.79602-7.71062-70.39469 17.59868-168.653954 86.52682-168.653954 33.73079 0 48.39635 24.931455 47.60023 48.499584-.42907 12.70211-1.96288 24.62002-1.96288 24.62002l99.5517 44.20489c2.61974-11.73245-7.33278-143.722504-143.7225-143.722504z" fill="#fff"/><circle cx="402.03778" cy="331.53278" fill="#202033" r="113.96178" stroke-width=".227923"/><path d="m370.62305 284.90645v46.66508c0 17.27204 14.00136 31.2734 31.2734 31.2734 17.27205 0 31.2734-14.00136 31.2734-31.2734 0-17.27206-14.00135-31.27341-31.2734-31.27341-4.76816.006-9.70498 1.52482-13.75291 4.26674v-19.65841zm31.2734 32.91216c7.59669 0 13.75291 6.1585 13.75291 13.75519 0 7.5967-6.1585 13.75292-13.75291 13.75292-7.5967 0-13.75291-6.1585-13.75291-13.75292 0-7.59897 6.15621-13.75519 13.75291-13.75519zm-35.64498 44.49752v-30.7446c0-17.27206-14.00134-31.27341-31.27338-31.27341-17.27206 0-31.2734 14.00135-31.2734 31.27341 0 17.27204 14.00134 31.2734 31.2734 31.2734 5.09636-.006 10.37964-2.17212 14.10163-5.77332v5.24452zm-31.27338-16.99169c-7.59669 0-13.75291-6.15851-13.75291-13.75519 0-7.5967 6.15849-13.75292 13.75291-13.75292 7.59669 0 13.75291 6.1585 13.75291 13.75292 0 7.59897-6.1585 13.75519-13.75291 13.75519zm133.97347-45.02632c-17.27204 0-31.27339 14.00135-31.27339 31.27341 0 17.27204 14.00135 31.2734 31.27339 31.2734 15.64695-.0183 28.87336-11.59905 30.95658-27.10468h-17.84869c-1.76641 5.55906-6.96534 9.58647-13.10789 9.58647-7.5967 0-13.75291-6.1585-13.75291-13.75292 0-7.59669 6.15849-13.7529 13.75291-13.75519 6.14255 0 11.34376 4.02741 13.10789 9.58647h17.85097c-2.0855-15.51021-15.31191-27.08871-30.95886-27.10696z" fill="#fff" stroke-width=".227923"/></g></svg>